<?xml version="1.0" encoding="utf-8"?>
<!-- Generator: Adobe Illustrator 19.0.0, SVG Export Plug-In . SVG Version: 6.00 Build 0)  -->
<svg version="1.1" xmlns="http://www.w3.org/2000/svg" xmlns:xlink="http://www.w3.org/1999/xlink" x="0px" y="0px"
	 viewBox="0 0 250 250" style="enable-background:new 0 0 250 250;" xml:space="preserve">
<style type="text/css">
	.st0{fill:#F1F2F2;}
	.st1{fill:#8E773B;}
	.st2{fill:#FCC9A7;}
	.st3{fill:#CAAD61;}
	.st4{fill:none;stroke:#4C392A;stroke-width:4.233;stroke-miterlimit:10;}
	.st5{fill:#353535;}
	.st6{fill:none;stroke:#B29487;stroke-width:4.233;stroke-miterlimit:10;}
	.st7{fill:none;stroke:#D5B4A1;stroke-width:4.0409;stroke-miterlimit:10;}
	.st8{fill:none;stroke:#000000;stroke-width:4.233;stroke-miterlimit:10;}
	.st9{fill:none;stroke:#D5B4A1;stroke-width:4.233;stroke-miterlimit:10;}
	.st10{fill:none;stroke:#A08658;stroke-width:4.233;stroke-miterlimit:10;}
	.st11{fill:none;stroke:#BC9E63;stroke-width:4.233;stroke-miterlimit:10;}
	.st12{fill:none;stroke:#D5B4A1;stroke-width:4.283;stroke-miterlimit:10;}
	.st13{stroke:#E4BA9C;stroke-width:1.7616;stroke-miterlimit:10;}
	.st14{fill:#515251;stroke:#E4BA9C;stroke-width:1.5529;stroke-miterlimit:10;}
</style>
<g id="Layer_2">
</g>
<g id="Layer_7">
</g>
<g id="Layer_6">
	<g id="Layer_4">
	</g>
	<g id="XMLID_4_">
		<path id="XMLID_24_" class="st0" d="M53.7,69c0,0-40.5,16.6-15.9,75.1c0,0-4.1,29.3,22,40.8c0,0,5.6,30.5,43.4,50.9
			c32.4,17.4,35.5,17.6,56.4,4c5.4-3.5,10.4-7.2,19-14.9c7.1-6.4,15.9-15.2,19.7-23.4c3.8-8.2,10.6-32.5,10.6-32.5
			s20.8-27.9,4.2-43.7c0,0,10.8-26.9,5.3-44.6l-2.4-5.1c0,0,4-6.5-1.9-15.1c0,0,2.1-7.9-1.2-10.2c0,0,7.1-5.2-0.2-9
			c0,0-2.8-14.4-12.2-21c0,0,6.8-14.3-1.8-19.8c0,0-56.2,19.6-78.6,19.9C97.9,20.8,57.8,23.3,53.7,69z"/>
		<path id="XMLID_23_" class="st1" d="M87.9,66.4c-1.5-1.9-4.2-2.4-6.4-1.8c-1,0.2-2,0.9-2.8,1.4c-2.1-0.3-4.5,1-5,3.2
			c0,0.1,0,0.2-0.1,0.3c0,0,0,0,0,0c-1.2,0.8-2,2.1-2,3.7c0,2.3,0.8,5.2,3.2,5.1c2.3-0.1,5.2-1.7,6.9-3.2c1.1-1,1.5-1.2,3.1-1
			c1.7,0.2,3.5-1.3,4-2.7C89.5,69.5,89.1,67.9,87.9,66.4z"/>
		<path id="XMLID_22_" class="st2" d="M203.6,131.2c-1-2.1-2.8-3.7-5-4.7c-0.1-0.1-0.2-0.1-0.3-0.2c-0.4-2-0.8-4-1.2-6
			c-2.4-13.3,0.9-27.8-5.2-40.1c-5.4-11-21.9-4.9-22.4,5.8c-0.1,1.3-0.1,2.6-0.2,4c-0.4,0.3-0.7,0.5-1.1,0.8
			c-3.3,2.8-6.4,6.2-8.1,10.2c-0.6,1.4-1,0-1,0.2c-0.1-0.1-0.1,1.9-0.8,2.2c-2,0.9-4.4,1.5-6.5,2.2c-4,1.4-8.3,3.6-12.5,3.1
			c-5.3-0.6-11.6-4.3-16.6-6.2c-3.1-1.2-6.4-2.2-9.6-3.4c-1.2-1.5-2.7-2.7-4.3-3.5c-0.5-0.8-1-1.5-1.6-2.3c-0.7-2.9-2.5-5.5-5.3-7
			c-0.9-1.6-1.8-3.1-2.9-4.5c-0.4-2.4-1.4-4.7-3.2-6.3c-2.3-2.1-5.1-3.4-8.2-3.4h-0.4c-3,0-6.1,1.3-8.2,3.4
			c-0.4,0.4-0.8,0.9-1.1,1.4c-2,1.3-3.4,3.3-4.2,5.5c-1,0.5-1.9,1.2-2.7,2.1c-5.7,6.2-9.2,12.1-11.4,20.3c-0.6,2.4-0.6,4.5,0,6.4
			c-1.6,4.8-2.3,9.9-1.5,14.9c-1.2,2.5-1.5,5.5-0.9,8.3c-1.2,0.9-2.2,1.9-3,3.2c-0.4,0.8-0.9,1.5-1.3,2.3c-0.8,1.1-1.3,2.3-1.6,3.7
			c-0.9,5-1.7,10.7,0.9,15.4c1.9,3.3,4.9,6.2,7.5,9.1c1.7,1.9,4.1,2.9,6.6,3.2c1.8,10.6,4.7,21.3,11,29.1c0,0.1,0.1,0.2,0.1,0.4
			c3.9,11.6,12.4,18.8,23.6,23.3c7.2,2.9,14.6,4.7,21.7,7.8c6.5,2.9,11.9,5.6,19.2,4.7c4-0.4,7.3-2.1,9.3-4.9
			c0.3,0.1,0.7,0.1,1.1,0.1c2.9,0,4.2-2.4,4.1-4.6c0.9-0.2,1.7-0.4,1.9-0.5c1.8-0.8,3.2-2,4.7-3.3c1.7-1.5,3.4-3.2,5.1-4.7
			c0.9,0.4,2,0.5,3,0.2c1.9-2.2,4.1-4.1,6.8-5.5c0.5-1,0.6-2.1,0.4-3.2c2.5-1.9,4.9-4,6.7-6.7c1.9-2.7,3-5.8,4.2-8.9
			c0.4-1,0.6-2.1,0.5-3.2c3.2-6.8,4.1-14.5,5.8-22.1c0.4-1.9,0.4-3.7,0-5.3c1.6-0.9,3.5,0.3,4.3-1.5c0.1-0.2,0.6-1.9,0.7-2.1
			c1.6-0.9,2-3.3,2.9-5.1C207.4,147.4,207.3,139.3,203.6,131.2z"/>
		<path id="XMLID_21_" class="st3" d="M210.4,90.7c-0.5-2.8-0.8-6-1.9-8.6c-1-2.5-2.7-3.6-4.5-5.1c3.2-3.2,4.4-8.3,1.7-12.7
			c-1.6-2.5-1-5.6-2.5-8.4c-0.5-1-1.2-1.9-2-2.7c3.9-3,4.8-9.4,2.4-13.5c-0.6-1.1-1.4-1.9-2.2-2.6c0,0,0-0.1,0-0.1
			c-2.1-4-5.3-6.1-9.1-7c-2.1-1.1-4.4-1.7-6.6-2.5c-0.3-1-0.7-2-1.2-2.9c0.6-0.2,1.1-0.3,1.7-0.5c2.1-0.7,3.7-3,3-5.2
			c-0.7-2.1-2.9-3.7-5.2-3l-6.1,1.9c-1.1,0.3-2,1.1-2.6,2.1c-0.7,0.1-1.3,0.2-2,0.5c-8.2,2.6-17.2,6.9-25.9,6.9
			c-3.3,0-5.7,1.2-7.4,3c-4.8,0.2-9.7,0.2-14.3,0.5c-0.9,0.1-1.7,0.2-2.5,0.4c-5.9-0.3-11.7-0.1-17.6,0.6c-3.4,0.4-6.5,1.8-8.5,4.4
			c-0.1,0-0.1,0.1-0.2,0.1c-1.2-0.1-2.5,0-3.7,0.2L90.9,37c-1.9,0.4-3.7,1.7-5.1,3.2h-0.2c-2.7,0-5.6,1.2-7.5,3.1
			c-1.5,1.5-2.6,3.7-3,5.9c-1.8,0.3-3.5,1.3-4.7,3c-0.8,1.1-1.4,2.4-1.9,3.7c0,0.1,0,0.1-0.1,0.2c-1,0.7-2.1,2.2-2.5,2.9
			c-1,1.5-1.4,3.1-1.5,4.9c0,0.6,0.1,1.1,0.2,1.6c-2.1,2.2-2.3,5.9-0.6,8.4c-0.3,0.6-0.5,1.2-0.5,1.9c0,0.8-0.1,1.6-0.1,2.4
			c-1.6-0.2-3.4,0.3-4.8,2c-1.2,1.5-4.6,2.1-6.4,3.4c-2.3,1.8-4.1,4.1-5.5,6.7c-3.3,6.3-4.7,13.2-5.1,20.2c-0.1,1.6,0.3,2.9,1.1,3.9
			c-0.1,0.7-0.1,1.5,0,2.3c0.5,2.7-0.4,5.2,0,7.8c0.4,2.6,1.2,4.9,1.5,7.6c0.9,8.2,11.7,8.1,12.7,0c1.3-10.5-0.4-21.2,3.1-31.3
			c0.4-1.1,0.4-2.1,0.3-3c0.6-1.2,1.2-2.4,1.7-3.5c0.3-0.6,0.5-1.2,0.6-1.9c1.8-0.8,3.7-1.6,5.1-3.2c1.3-1.6,1.8-3.3,1.6-5
			c1.6-0.6,2.6-2.1,2.7-3.9c0.1-1.5,0.1-3,0.2-4.5c0,0,0-0.1,0-0.1c2.6-1.3,3.6-4.5,3-7.2c0.7-0.7,1.3-1.5,1.7-2.5
			c0.8-0.5,1.5-1.2,2.1-1.9c1.4,0.8,3.2,1.3,5.2,1.3c0.5,0,1.1,0,1.6-0.1c0.3,0.5,0.8,1,1.4,1.3c2.2,1.2,5.5,2.7,6.3,4.9
			c0.5,1.2,1.3,2.2,2.4,2.7c0.7,1.4,1.4,2.8,2.1,4.2c1.3,2.4,2.6,4.8,4.4,6.9c0.9,1-0.1,3.3,1.1,4.1c0.5,1.1,3.1,0.8,3.9,1.8
			c1.8,2.5,4,4.4,6.6,5.7c1.5,4,5.4,6.8,9.9,6.9c0.9,0,1.9,0,2.8,0.1c0.4,0.3,0.7,0.6,1.2,0.9c1.4,0.9,3,1.5,4.5,2.2
			c1.6,0.8,3.5,0.7,4.8-0.4c2.7,1.7,6.1,2.3,8.9,1.5c1.4-0.4,2.5-1,3.5-1.7c1.5-0.5,2.9-1.3,4.1-2.5c0.1-0.1,0.2-0.2,0.4-0.4
			c0.1-0.1,0.2-0.3,0.4-0.4c1.5-0.5,3-1.3,4.1-2.5c1-1.1,2.2-2.1,3.3-3c0.2-0.2,0.5-0.4,0.7-0.6c0.7-0.4,1.4-0.9,2.1-1.5
			c0.5-0.5,0.9-0.9,1.4-1.4c1.6-1.6,2.6-3.8,2.9-6c0.4-0.4,0.8-0.7,1.2-1.1c0.6-0.5,1.1-1.2,1.5-1.9c0.3-0.3,0.7-0.5,1-0.8
			c1.9-2,3.1-4.5,3.1-7.4c1.2-1.3,2-2.7,2.5-4.4l0.3-0.7c2.9,2.2,6.2,4,9.6,5.2c1.2,1.2,2.7,2.1,4.3,2.7c-0.3,1.7,0.1,3.6,1.8,5.3
			c0.2,0.2,0.5,0.4,0.8,0.8c-0.4,0.8-0.5,1.8-0.2,2.7c0.3,0.9,0.7,1.9,1,2.8c0.4,1.3,1.4,2.3,2.6,2.8c0.8,5.4-0.1,10.1-1.5,15.4
			c-0.6,2.2-0.1,4,1,5.3v8.8c0,5.4,8.5,5.5,8.5,0v-7c1.3-0.7,2.3-1.9,2.8-3.7C210.9,105.3,211.8,98.5,210.4,90.7z"/>
		<path id="XMLID_20_" class="st4" d="M70.1,129.6c0,0,19.8-8.2,36.2,0"/>
		<path id="XMLID_19_" class="st4" d="M159.6,129.6c0,0,15.9-12.7,32.3-7.1"/>
		
			<ellipse id="XMLID_18_" transform="matrix(0.9929 -0.1192 0.1192 0.9929 -17.2465 12.6862)" class="st5" cx="97.4" cy="150.5" rx="4.8" ry="6.3"/>
		<ellipse id="XMLID_17_" class="st5" cx="169.3" cy="148.9" rx="4.8" ry="6.3"/>
		<path id="XMLID_16_" class="st6" d="M122.3,204.2c0,0,17.2,14.8,30.6-1.1"/>
		<path id="XMLID_15_" class="st7" d="M124.1,144.1l-1.6,20.4l-5.6,6.9c0,0-3.4,8.5,8.8,8.6c6.2,0,5.9,4.4,10,5
			c3.2,0.5,8.9-7.1,12.4-7.1c3.5,0,9.4-9.7,2.4-12.9c-7.1-3.2-5.7-20.1-5.7-20.1"/>
		<path id="XMLID_14_" class="st8" d="M56.1,135.6"/>
		<path id="XMLID_13_" class="st9" d="M50.3,140.9c0,0-1.5,29.4,15.9,30.6"/>
		<path id="XMLID_12_" class="st10" d="M71.4,81.8c0,0,7.3-7.1,20.4-10.1"/>
		<path id="XMLID_11_" class="st11" d="M164.1,71.5c0.5-0.2,13-7.3,18.2-13c0.7-0.8,1.9,0.5,1.5,1.5l-7.3,16.3"/>
		<path id="XMLID_10_" class="st8" d="M92.6,75.6"/>
		<path id="XMLID_9_" class="st12" d="M202.8,128.8c0,0,9.1,9.4,2.2,24s-8.6,16.2-8.6,16.2"/>
		<line id="XMLID_8_" class="st13" x1="100.3" y1="204.5" x2="104.1" y2="208.7"/>
		<line id="XMLID_7_" class="st14" x1="170.6" y1="201.5" x2="168.1" y2="205.1"/>
		<path id="XMLID_6_" class="st9" d="M56.1,137.4c0,0,1.1,6.9,3.2,13.9c2.9,9.6,7,22.3,11.5,34.2c5.1,13.5,6.8,18.5,17.4,29.9
			c6.1,6.5,27.3,15.6,39.5,19.9c0.1,0,9.8,4,18.3,0.2c8.8-3.9,36.2-27,38.9-32c4.6-8.6,14.7-27.5,13.9-73.4"/>
		<path id="hair_1_" class="st11" d="M191.3,13.7c0,0-36.5,16.4-70.9,16.9c-34.4,0.5-58.7,19-55.6,47.1c0,0-20.4-1.3-23,26.5
			s8.5,36.8,8.5,36.8s2.6-5.8,5.8-5.3c0,0-1.4-37.2,15.3-53.9c0,0-0.7-15.4,8.6-17.5s22.3,23.7,22.3,23.7s9.1,12.3,33.4,20.1
			c24.8,7.9,38.7-36.7,45.9-35.4c5.3,1,16.1,15.6,16.4,28.5c0.2,14.3,0.8,27.3,0.8,27.3s2.9-0.5,4.2,0.3c1.3,0.8,15.9-49.2,0-53.7
			c0,0,5.6-1.3,5-4.2c-0.5-2.9-2.6-9.3-3.7-9.5c-1.1-0.3,4.2-5.6-4.2-10.1c0,0,6.6-3.8,6.7-4.9c0.2-1.1-0.8-0.6-2.8-1.8
			c-1.9-1.2-2.6-4.2-0.7-5.1c1.9-0.9-7.2-13.8-19-13.4C184.2,26,192,16.3,191.3,13.7z"/>
	</g>
</g>
<g id="Layer_5">
</g>
</svg>
